<?xml version="1.0" encoding="UTF-8" standalone="no"?>
<svg
   xmlns:dc="http://purl.org/dc/elements/1.1/"
   xmlns:cc="http://creativecommons.org/ns#"
   xmlns:rdf="http://www.w3.org/1999/02/22-rdf-syntax-ns#"
   xmlns:svg="http://www.w3.org/2000/svg"
   xmlns="http://www.w3.org/2000/svg"
   xmlns:sodipodi="http://sodipodi.sourceforge.net/DTD/sodipodi-0.dtd"
   xmlns:inkscape="http://www.inkscape.org/namespaces/inkscape"
   role="img"
   viewBox="0 0 24 24"
   version="1.1"
   id="svg2198"
   sodipodi:docname="github_inv.svg"
   inkscape:version="0.92.4 (5da689c313, 2019-01-14)">
  <metadata
     id="metadata2204">
    <rdf:RDF>
      <cc:Work
         rdf:about="">
        <dc:format>image/svg+xml</dc:format>
        <dc:type
           rdf:resource="http://purl.org/dc/dcmitype/StillImage" />
        <dc:title>GitHub icon</dc:title>
      </cc:Work>
    </rdf:RDF>
  </metadata>
  <defs
     id="defs2202" />
  <sodipodi:namedview
     pagecolor="#ffffff"
     bordercolor="#666666"
     borderopacity="1"
     objecttolerance="10"
     gridtolerance="10"
     guidetolerance="10"
     inkscape:pageopacity="0"
     inkscape:pageshadow="2"
     inkscape:window-width="950"
     inkscape:window-height="638"
     id="namedview2200"
     showgrid="false"
     inkscape:zoom="13.906433"
     inkscape:cx="12.65258"
     inkscape:cy="12.701613"
     inkscape:window-x="0"
     inkscape:window-y="0"
     inkscape:window-maximized="0"
     inkscape:current-layer="svg2198" />
  <title
     id="title2194">GitHub icon</title>
  <path
     style="opacity:1;fill:#ffffff;fill-opacity:1;stroke:#ffffff;stroke-width:0;stroke-linecap:round;stroke-linejoin:round;stroke-miterlimit:4;stroke-dasharray:none;stroke-opacity:1"
     d="M 12.000002,-1.4999935e-7 A 12,12 0 0 0 10.951174,0.05273385 C 11.297667,0.02267185 11.645684,-1.4999935e-7 12.000002,-1.4999935e-7 Z M 10.363283,0.12499985 a 12,12 0 0 0 -0.5722655,0.087891 c 0.1885418,-0.035107 0.3807285,-0.061708 0.5722655,-0.087891 z M 9.0898457,0.36914045 A 12,12 0 0 0 8.6660175,0.47851548 C 8.805717,0.43817415 8.9480972,0.40449265 9.0898457,0.36914045 Z M 7.8886738,0.73828111 A 12,12 0 0 0 7.5507831,0.86132798 C 7.6618783,0.81691858 7.7759673,0.77943668 7.8886738,0.73828111 Z M 6.8496113,1.173828 A 12,12 0 0 0 6.439455,1.3710937 C 6.5735528,1.3008048 6.7125837,1.2391335 6.8496113,1.173828 Z M 5.8125019,1.7324218 A 12,12 0 0 0 5.4316425,1.9628905 C 5.5555885,1.8816219 5.6854194,1.8091675 5.8125019,1.7324218 Z M 18.753908,2.0820311 c 0.08616,0.058796 0.165472,0.1265381 0.25,0.1875 a 12,12 0 0 0 -0.25,-0.1875 z M 4.8164081,2.4023437 A 12,12 0 0 0 4.470705,2.6601561 C 4.5824618,2.5699576 4.701399,2.4885608 4.8164081,2.4023437 Z M 19.683596,2.7871093 c 0.133118,0.1111494 0.25663,0.2328924 0.384765,0.3496094 A 12,12 0 0 0 19.683596,2.7871093 Z M 3.9296894,3.1367187 A 12,12 0 0 0 3.5820331,3.4531249 C 3.6936601,3.3431789 3.813843,3.2422566 3.9296894,3.1367187 Z M 20.535158,3.5722655 c 0.130808,0.1324663 0.252379,0.2737013 0.376953,0.4121094 A 12,12 0 0 0 20.535158,3.5722655 Z M 3.095705,3.9765624 A 12,12 0 0 0 2.7871113,4.314453 C 2.8850505,4.19716 2.993433,4.0899947 3.095705,3.9765624 Z m 18.234375,0.484375 c 0.10433,0.1289452 0.199815,0.2651634 0.298828,0.3984375 A 12,12 0 0 0 21.33008,4.4609374 Z M 5.876955,4.9511718 c -0.1300781,0.00594 -0.1933594,0.025391 -0.1933593,0.025391 -0.645,1.653 -0.2404688,2.8727811 -0.1054688,3.1757813 -0.77,0.8399999 -1.234375,1.9107029 -1.234375,3.2207029 0,4.598 2.8017969,5.629687 5.4667969,5.929687 -0.343,0.3 -0.6517655,0.829469 -0.7597657,1.605469 -0.6859998,0.307 -2.4260937,0.836953 -3.4960937,-0.998047 0,0 -0.6328906,-1.152328 -1.8378906,-1.236328 0,0 -1.1709844,-0.01548 -0.083984,0.728516 0,0 0.7899375,0.370859 1.3359375,1.755859 0,0 0.7030156,2.333375 4.0410156,1.609375 0.005,1 0.015625,1.756016 0.015625,2.041016 0,0.312865 -0.2168297,0.668936 -0.7910156,0.576172 A 12,12 0 0 0 12.000003,24 12,12 0 0 0 15.814456,23.357422 v -0.0078 c -0.0173,0.0058 -0.03345,0.01385 -0.05078,0.01953 -0.615,0.12 -0.824219,-0.255313 -0.824219,-0.570313 0,-0.39 0.01367,-1.679156 0.01367,-3.285156 0,-1.124 -0.388594,-1.860703 -0.808594,-2.220703 2.67,-0.295 5.47461,-1.309922 5.47461,-5.919922 0,-1.31 -0.465469,-2.3807031 -1.230469,-3.2207029 0.12,-0.3030002 0.525859,-1.5227813 -0.119141,-3.1757813 0,0 -1.005156,-0.3215312 -3.285156,1.2304687 -0.96,-0.267 -1.98,-0.3982968 -3,-0.4042968 -1.02,0.006 -2.0400007,0.1372969 -3.0000007,0.4042968 C 7.2631269,5.0430312 6.2671894,4.9333593 5.876955,4.9511718 Z m -3.6074219,0.044922 a 12,12 0 0 0 -0.1875,0.25 c 0.058779,-0.086159 0.1265544,-0.1654715 0.1875,-0.25 z M 22.031252,5.4218749 c 0.08697,0.1323441 0.164284,0.2703293 0.246094,0.40625 a 12,12 0 0 0 -0.246094,-0.40625 z m 0.595703,1.015625 c 0.07318,0.1395275 0.137297,0.28504 0.205078,0.4277344 A 12,12 0 0 0 22.626955,6.4374999 Z m 0.507813,1.1054688 c 0.04841,0.1207735 0.09021,0.2445119 0.134765,0.3671874 A 12,12 0 0 0 23.134768,7.5429687 Z m 0.384765,1.1171874 c 0.04244,0.1465824 0.07634,0.2964785 0.113281,0.4453126 A 12,12 0 0 0 23.519533,8.6601561 Z m 0.267578,1.1269532 c 0.03572,0.1912801 0.06137,0.3857197 0.08789,0.5800787 a 12,12 0 0 0 -0.08789,-0.5800787 z m 0.160157,1.1640627 c 0.03006,0.346366 0.05273,0.69467 0.05273,1.048828 a 12,12 0 0 0 -0.05273,-1.048828 z M 1.835e-6,12 A 12,12 0 0 0 0.03515813,12.904297 C 0.01289163,12.605544 1.835e-6,12.304466 1.835e-6,12 Z M 23.943361,13.130859 c -0.0075,0.07947 -0.0203,0.157309 -0.0293,0.236329 a 12,12 0 0 0 0.0293,-0.236329 z M 0.17187683,14.023438 a 12,12 0 0 0 0.0175781,0.08789 c -0.005242,-0.02952 -0.0125527,-0.05829 -0.0175781,-0.08789 z M 23.785158,14.224609 c -0.02164,0.115058 -0.0454,0.229874 -0.07031,0.34375 a 12,12 0 0 0 0.07031,-0.34375 z M 0.41601745,15.115234 a 12,12 0 0 0 0.0664063,0.230469 c -0.0222993,-0.0769 -0.0456123,-0.152943 -0.0664063,-0.230469 z M 23.515627,15.351562 c -0.02693,0.09244 -0.051,0.185845 -0.08008,0.277344 a 12,12 0 0 0 0.08008,-0.277344 z M 0.78320495,16.246094 a 12,12 0 0 0 0.0625,0.167968 c -0.0219383,-0.0554 -0.0413662,-0.11217 -0.0625,-0.167968 z M 22.587893,17.634766 c -0.06482,0.121146 -0.134293,0.238806 -0.203125,0.357422 a 12,12 0 0 0 0.203125,-0.357422 z M 1.8710957,18.431641 a 12,12 0 0 0 0.1308593,0.191406 c -0.042771,-0.06441 -0.089307,-0.126125 -0.1308593,-0.191406 z m 20.1835943,0.09766 c -0.09665,0.147956 -0.193925,0.296124 -0.296876,0.439453 A 12,12 0 0 0 22.05469,18.529297 Z M 2.4980488,19.316406 a 12,12 0 0 0 0.21875,0.277344 c -0.074524,-0.09097 -0.1468759,-0.184172 -0.21875,-0.277344 z m 0.7558593,0.886719 a 12,12 0 0 0 0.1914063,0.207031 C 3.3793714,20.343116 3.3182718,20.271695 3.2539081,20.203125 Z m 0.9804688,0.941406 a 12,12 0 0 0 0.1757812,0.138672 c -0.05769,-0.04719 -0.118994,-0.09043 -0.1757812,-0.138672 z m 0.8730469,0.669922 a 12,12 0 0 0 0.2890625,0.195313 C 5.299305,21.945577 5.2025989,21.881369 5.1074238,21.814453 Z m 0.9453125,0.597656 A 12,12 0 0 0 6.345705,22.580078 C 6.2463815,22.526938 6.1503643,22.467941 6.0527363,22.412109 Z"
     id="path4555"
     inkscape:connector-curvature="0" />
</svg>
