<?xml version="1.0" encoding="UTF-8" standalone="no"?>
<svg
   xmlns:dc="http://purl.org/dc/elements/1.1/"
   xmlns:cc="http://creativecommons.org/ns#"
   xmlns:rdf="http://www.w3.org/1999/02/22-rdf-syntax-ns#"
   xmlns:svg="http://www.w3.org/2000/svg"
   xmlns="http://www.w3.org/2000/svg"
   xmlns:sodipodi="http://sodipodi.sourceforge.net/DTD/sodipodi-0.dtd"
   xmlns:inkscape="http://www.inkscape.org/namespaces/inkscape"
   role="img"
   viewBox="0 0 24 24"
   version="1.1"
   id="svg965"
   sodipodi:docname="linkedin_inv.svg"
   inkscape:version="0.92.4 (5da689c313, 2019-01-14)">
  <metadata
     id="metadata971">
    <rdf:RDF>
      <cc:Work
         rdf:about="">
        <dc:format>image/svg+xml</dc:format>
        <dc:type
           rdf:resource="http://purl.org/dc/dcmitype/StillImage" />
        <dc:title>LinkedIn icon</dc:title>
      </cc:Work>
    </rdf:RDF>
  </metadata>
  <defs
     id="defs969" />
  <sodipodi:namedview
     pagecolor="#ffffff"
     bordercolor="#666666"
     borderopacity="1"
     objecttolerance="10"
     gridtolerance="10"
     guidetolerance="10"
     inkscape:pageopacity="0"
     inkscape:pageshadow="2"
     inkscape:window-width="913"
     inkscape:window-height="530"
     id="namedview967"
     showgrid="false"
     inkscape:zoom="9.8333333"
     inkscape:cx="11.288136"
     inkscape:cy="12.050847"
     inkscape:window-x="187"
     inkscape:window-y="70"
     inkscape:window-maximized="0"
     inkscape:current-layer="svg965" />
  <title
     id="title961">LinkedIn icon</title>
  <path
     style="opacity:1;fill:#ffffff;fill-opacity:1;stroke:#ffffff;stroke-width:0;stroke-linecap:round;stroke-linejoin:round;stroke-miterlimit:4;stroke-dasharray:none;stroke-opacity:1"
     d="M 5.3378906 3.3046875 C 4.1948906 3.3046875 3.2734375 4.2291875 3.2734375 5.3671875 C 3.2734375 6.5061875 4.1938906 7.4335938 5.3378906 7.4335938 C 6.4768906 7.4335937 7.4003906 6.5061875 7.4003906 5.3671875 C 7.4003906 4.2291875 6.4778906 3.3046875 5.3378906 3.3046875 z M 16.181641 8.7109375 C 14.448641 8.7109375 13.287547 9.6605465 12.810547 10.560547 L 12.765625 10.560547 L 12.765625 9 L 9.3515625 9 L 9.3515625 20.451172 L 12.904297 20.451172 L 12.904297 14.785156 C 12.904297 13.291156 13.188016 11.845703 15.041016 11.845703 C 16.866016 11.845703 16.892578 13.554814 16.892578 14.882812 L 16.892578 20.451172 L 20.447266 20.451172 L 20.447266 14.166016 C 20.447266 11.081016 19.782641 8.7109375 16.181641 8.7109375 z M 3.5546875 9 L 3.5546875 20.451172 L 7.1191406 20.451172 L 7.1191406 9 L 3.5546875 9 z "
     id="rect5817" />
</svg>
