<?xml version="1.0" encoding="UTF-8" standalone="no"?>
<svg
   xmlns:dc="http://purl.org/dc/elements/1.1/"
   xmlns:cc="http://creativecommons.org/ns#"
   xmlns:rdf="http://www.w3.org/1999/02/22-rdf-syntax-ns#"
   xmlns:svg="http://www.w3.org/2000/svg"
   xmlns="http://www.w3.org/2000/svg"
   xmlns:sodipodi="http://sodipodi.sourceforge.net/DTD/sodipodi-0.dtd"
   xmlns:inkscape="http://www.inkscape.org/namespaces/inkscape"
   role="img"
   viewBox="0 0 24 24"
   version="1.1"
   id="svg885"
   sodipodi:docname="pinterest_inv.svg"
   inkscape:version="0.92.4 (5da689c313, 2019-01-14)">
  <metadata
     id="metadata891">
    <rdf:RDF>
      <cc:Work
         rdf:about="">
        <dc:format>image/svg+xml</dc:format>
        <dc:type
           rdf:resource="http://purl.org/dc/dcmitype/StillImage" />
        <dc:title>Pinterest icon</dc:title>
      </cc:Work>
    </rdf:RDF>
  </metadata>
  <defs
     id="defs889" />
  <sodipodi:namedview
     pagecolor="#ffffff"
     bordercolor="#666666"
     borderopacity="1"
     objecttolerance="10"
     gridtolerance="10"
     guidetolerance="10"
     inkscape:pageopacity="0"
     inkscape:pageshadow="2"
     inkscape:window-width="1076"
     inkscape:window-height="710"
     id="namedview887"
     showgrid="false"
     inkscape:zoom="22.627417"
     inkscape:cx="11.133392"
     inkscape:cy="1.1792524"
     inkscape:window-x="0"
     inkscape:window-y="0"
     inkscape:window-maximized="0"
     inkscape:current-layer="svg885" />
  <title
     id="title881">Pinterest icon</title>
  <rect
     style="opacity:1;fill:#ff3939;fill-opacity:1;stroke:#ff3939;stroke-width:0.94488192;stroke-linecap:round;stroke-linejoin:round;stroke-miterlimit:4;stroke-dasharray:none;stroke-opacity:1"
     id="rect5189"
     width="27.786781"
     height="23.795309"
     x="26.558636"
     y="0.25586355" />
  <path
     d="M 7.6464844 23.160156 L 7.6464844 23.148438 L 7.6132812 23.148438 A 12 12 0 0 0 7.6464844 23.160156 z "
     id="path5230" />
  <path
     d="m 12.333162,0.0620031 c -6.5350682,0 -10.0071984,4.3920316 -10.0071984,9.1631881 0,2.2339518 1.1859579,4.9992058 3.0749617,5.8710548 0.2893523,0.133935 0.4389445,0.07452 0.5059125,-0.209769 C 5.958643,14.679255 6.2151237,13.6402 6.328843,13.166375 6.3629585,13.014744 6.3453469,12.881186 6.2202568,12.729561 5.5948009,11.97396 5.0973776,10.569922 5.0973776,9.2646771 c 0,-3.3319759 2.5272902,-6.5669926 6.8359904,-6.5669929 3.721147,0 6.327608,2.5373809 6.327608,6.1523913 0,4.0964215 -2.074153,6.9322375 -4.762982,6.9322375 -1.484668,0 -2.600935,-1.229453 -2.240821,-2.736865 0.428339,-1.800556 1.253676,-3.744128 1.253676,-5.0443186 0,-1.161201 -0.626127,-2.1322366 -1.920001,-2.1322366 -1.5175216,0 -2.7393314,1.5783088 -2.7393314,3.6795884 0,1.3406238 0.454087,2.2506938 0.454087,2.2506938 0,0 -1.5001465,6.343048 -1.7768635,7.526994 -0.3032514,1.309035 -0.1844971,3.144337 -0.051825,4.343444 v 0.0148 a 15.162571,15.162571 0 0 0 1.0019538,0.377583 c 0.6241547,-1.003852 1.5487275,-2.650653 1.8879165,-3.968329 l 0.9451936,-3.598149 c 0.510473,0.947661 1.950681,1.742314 3.484627,1.742314 4.581624,0 7.87743,-4.20248 7.87743,-9.4272494 0,-4.9985951 -4.087043,-8.7485866 -9.340874,-8.7485866 z"
     id="path5218"
     style="fill:#ffffff;stroke-width:1.26354766"
     inkscape:connector-curvature="0" />
  <path
     d="M 5.3144531 2.046875 A 12 12 0 0 0 3.1835938 3.8925781 C 3.8195191 3.1992306 4.5322376 2.575299 5.3144531 2.046875 z "
     id="path5209" />
  <path
     d="M 20.238281 20.691406 C 19.487005 21.405547 18.646324 22.027366 17.730469 22.529297 A 12 12 0 0 0 20.238281 20.691406 z "
     id="path5207" />
</svg>
